<svg width="50" height="50" viewBox="0 0 50 50" fill="none" xmlns="http://www.w3.org/2000/svg">
<g id="Fi Br Time Check" opacity="0.52" clip-path="url(#clip0_137_43)">
<g id="Clip path group">
<mask id="mask0_137_43" style="mask-type:luminance" maskUnits="userSpaceOnUse" x="0" y="0" width="50" height="50">
<g id="clip0_203_29651">
<path id="Vector" d="M50 0H0V50H50V0Z" fill="white"/>
</g>
</mask>
<g mask="url(#mask0_137_43)">
<g id="Group">
<path id="Vector_2" d="M20.5333 43.2129C17.1182 42.3752 14.0075 40.5939 11.5563 38.0727C9.1051 35.5514 7.41231 32.3918 6.67119 28.9543C5.93006 25.517 6.17048 21.9406 7.36498 18.6332C8.5595 15.3259 10.6599 12.4212 13.4265 10.2507C16.193 8.08024 19.5142 6.73146 23.0106 6.35838C26.5073 5.98532 30.0381 6.60301 33.2004 8.1409C36.3627 9.67882 39.0287 12.075 40.8942 15.0558C42.7596 18.0365 43.7492 21.4818 43.75 24.9983C43.75 25.827 44.0792 26.6218 44.6652 27.2079C45.2513 27.7939 46.0462 28.1233 46.875 28.1233C47.7037 28.1233 48.4987 27.7939 49.0848 27.2079C49.6708 26.6218 50 25.827 50 24.9983C49.9994 20.3094 48.68 15.7152 46.1927 11.7405C43.7056 7.76571 40.1506 4.57053 35.934 2.51982C31.7175 0.469108 27.0092 -0.354463 22.3469 0.143158C17.6844 0.640778 13.256 2.43953 9.56721 5.33401C5.87844 8.22846 3.07798 12.102 1.48569 16.5122C-0.106599 20.9222 -0.426552 25.6914 0.562375 30.2747C1.5513 34.8581 3.80925 39.071 7.07833 42.4322C10.3474 45.7935 14.4959 48.1677 19.05 49.2837C19.2926 49.3437 19.5417 49.3739 19.7917 49.3733C20.5554 49.3724 21.2925 49.0918 21.8635 48.5847C22.4346 48.0777 22.8 47.3789 22.891 46.6208C22.9821 45.8624 22.7923 45.097 22.3575 44.4691C21.9227 43.8412 21.2731 43.3943 20.5312 43.2129H20.5333Z" fill="#00EAFF"/>
<path id="Vector_3" d="M49.2106 33.208C48.6245 32.6221 47.8297 32.293 47.0012 32.293C46.1724 32.293 45.3778 32.6221 44.7918 33.208L34.823 43.1705L30.3793 38.4621C30.0949 38.1661 29.7553 37.9288 29.3793 37.7642C29.0035 37.5994 28.5987 37.5105 28.1885 37.5021C27.778 37.4938 27.3701 37.5663 26.9878 37.7157C26.6055 37.865 26.2566 38.0882 25.9605 38.3725C25.6647 38.6569 25.4276 38.9967 25.263 39.3728C25.0985 39.7488 25.0097 40.1534 25.0016 40.5638C24.9935 40.974 25.0662 41.3819 25.2158 41.7642C25.3653 42.1463 25.5887 42.4953 25.873 42.7913L31.2501 48.46C31.6995 48.9361 32.2395 49.3175 32.8385 49.5823C33.4372 49.8471 34.0831 49.9896 34.7376 50.0017H34.8147C36.1118 49.9973 37.3549 49.4823 38.2751 48.5684L49.221 37.6267C49.8053 37.0392 50.1326 36.2438 50.1308 35.4151C50.1287 34.5865 49.7978 33.7926 49.2106 33.208Z" fill="#00EAFF"/>
<path id="Vector_4" d="M21.875 15.625V23.0313L16.875 26.1563C16.5271 26.3742 16.2255 26.6583 15.9874 26.9927C15.7494 27.3273 15.5795 27.7052 15.4876 28.1054C15.3957 28.5054 15.3836 28.9198 15.4518 29.3246C15.5201 29.7294 15.6674 30.1167 15.8854 30.4646C16.1033 30.8125 16.3875 31.1142 16.722 31.3521C17.0564 31.5902 17.4345 31.76 17.8346 31.8519C18.2347 31.9438 18.649 31.956 19.0538 31.8877C19.4586 31.8196 19.8459 31.6721 20.1938 31.4542L26.1708 27.7042C26.7706 27.3283 27.2646 26.806 27.6065 26.1865C27.9485 25.5667 28.1269 24.8702 28.125 24.1625V15.625C28.125 14.7962 27.7958 14.0013 27.2098 13.4153C26.6238 12.8292 25.8288 12.5 25 12.5C24.1713 12.5 23.3765 12.8292 22.7904 13.4153C22.2042 14.0013 21.875 14.7962 21.875 15.625Z" fill="#00EAFF"/>
</g>
</g>
</g>
</g>
<defs>
<clipPath id="clip0_137_43">
<rect width="50" height="50" fill="white"/>
</clipPath>
</defs>
</svg>
