<svg width="59" height="59" viewBox="0 0 59 59" fill="none" xmlns="http://www.w3.org/2000/svg">
<g opacity="0.52">
<path d="M48.2543 34.7385L46.0549 42.6872C45.2458 45.6112 42.1051 46.0003 40.5801 43.3921L32.7745 30.0426L25.9573 40.5834C24.4988 42.8385 21.5979 42.8522 20.1247 40.6035L17.012 35.8526L15.5869 37.3141C14.3747 38.5571 12.4362 39.0599 10.7455 38.6544V44.3781C10.7455 46.9461 12.1284 48.2549 14.5976 48.2549H44.4269C46.8715 48.2549 48.2543 46.9461 48.2543 44.3781V34.7385ZM48.2543 18.9359V14.6229C48.2543 12.0548 46.8715 10.7461 44.4269 10.7461H14.5976C12.1284 10.7461 10.7455 12.0548 10.7455 14.6229V34.0845L11.6524 34.531C11.8763 34.6412 12.3939 34.5521 12.5697 34.3718L14.3574 32.5385C16.1104 30.7408 18.8769 31.009 20.2532 33.1098L23.0304 37.3487L29.9495 26.6504C31.435 24.3536 34.3673 24.4175 35.7488 26.7801L42.7639 38.7779L48.2543 18.9359ZM14.5236 52.2304C9.38739 52.2304 6.7699 49.6871 6.7699 44.5756V14.4253C6.7699 9.31383 9.38739 6.77051 14.5236 6.77051H44.5009C49.6617 6.77051 52.23 9.33859 52.23 14.4253V44.5756C52.23 49.6624 49.6617 52.2304 44.5009 52.2304H14.5236Z" fill="#00EAFF"/>
</g>
</svg>
